<svg id="Layer_1" data-name="Layer 1" xmlns="http://www.w3.org/2000/svg" viewBox="0 0 1000 1000"><defs><style>.cls-1{fill:#fff;}</style></defs><rect class="cls-1" width="1000" height="1000" rx="500"/><path d="M408.53,278c0-13.21,0-25.94,0-38.67,0-20.22,16.23-37,36.51-37.1,51.71-.19,103.43.11,155.14-.19,18.13-.11,37.94,15.62,38.09,39.17.07,10.59,0,21.18,0,31.78v5H720.8c18,0,30.63,12.42,30.64,30.36q.07,129.21,0,258.42c0,18.73-12.3,31.79-30.92,31.9-51.56.3-103.12.16-154.68.19q-50.46,0-100.93,0c-.27,0-.54-.17-.45-.14,51.81-57.61,59-120.08,20.93-188,5.89,0,12.22,0,18.54,0,1.05,0,2.1.1,3.57.18,0,7.27-.07,14.24,0,21.21a16.67,16.67,0,0,0,16.81,16.89c6.85.13,13.71.12,20.56,0A16.16,16.16,0,0,0,561,432.64c.06-7.13,0-14.25,0-21.87h5.39q34.57,0,69.16,0c2.15,0,4.51,0,6.4-.81,4.62-2.05,8.36-.46,11.47,2.55q16.29,15.75,32.18,31.92c.75.76.73,2.76.42,4-2.32,9.38,2.45,18,11.36,20.32,9.11,2.34,17.86-3.11,20-12.65,1.35-6-.78-11.13-5.33-15-5-4.22-10.92-5.69-16.87-2.57-3.35,1.76-5.09.58-7.19-1.5q-8.64-8.55-17.33-17l-16.81-16.42c.49-6,.94-11.57,1.36-16.76,11.49-11.42,23.41-23.18,35.2-35.06,2.15-2.16,3.9-3,7.2-2.07,7.31,2.06,15.38-2.25,18.56-9.11a16.22,16.22,0,0,0-24.95-19.46c-6.32,5.25-7.89,13.24-4,20.58.42.8.93,1.55,1.21,2-10.52,10.71-20.79,21.35-31.29,31.75-3.39,3.37-7.11,5-12.34,2.12-5.43-3-11.24-1.63-16.11,2.34-5.81,4.74-7.15,11-5.43,18.37H561c0-3.35,0-6.85,0-10.36-.11-6-2.51-8.79-8.39-8.87q-18.47-.26-36.92,0c-5.59.08-8.09,2.93-8.2,8.55-.07,3.41,0,6.83,0,11-6.31,0-12.51-.45-18.61.11-9.07.84-15.39-1.95-22.09-8.86-24.28-25-54.19-39.31-89.15-42.76a144.18,144.18,0,0,0-86.56,18.06c-.49.27-1,.5-2.18,1.08v-5q0-26.16,0-52.33c0-18.53,12.4-30.84,31.05-30.85C349.22,278,378.5,278,408.53,278Zm29.92-.26H607.62c0-11.74.22-23.23-.09-34.7-.16-5.93-5.08-9.89-11.42-9.89q-73.29,0-146.59,0c-6.39,0-10.84,3.86-11,10.18C438.25,254.7,438.45,266.05,438.45,277.78Z"/><path d="M247.93,577.35,242,571.06l10.86-10.77c-19.9-35.28-25-71.78-12.32-109.91,9.74-29.35,27.91-52.45,54.29-68.81,50.35-31.2,123.31-24.94,167.16,26.1,40.87,47.57,41.5,119.67.59,168.87-39.88,48-112.88,63.38-172.52,23.94l-9.48,10.06-6.85-9c-.72,4.3-.71,7.12-1.71,9.53-1.52,3.65-3.09,7.66-5.78,10.4q-31.49,31.93-63.47,63.39c-7.7,7.61-17,10-27.45,6.65-10.17-3.28-16.56-10.34-18.67-20.77-1.65-8.17,0-16,6-22q32.41-32.67,65.15-65C233,578.5,240,577.25,247.93,577.35Zm115.62-190c-59.94-.83-104.86,47.89-105.41,103.19-.6,60.23,46.66,108,106,108.05,57.1.07,104.35-47.77,104.14-105.91C468.07,432.52,420.53,387,363.55,387.33Z"/><path d="M293.64,796.91c-38.65-.11-65.58-27.45-65.49-66.48.08-36.42,28.22-63.64,65.65-63.52,38.05.12,65.29,27.92,65.17,66.52C358.86,769.46,330.5,797,293.64,796.91Zm38.62-65c-.43-3.53-.65-7.11-1.32-10.6-6.06-31.66-40.54-37.85-59.87-24-12.94,9.25-16.32,22.82-15.84,37.82.85,26.51,22.21,43.14,48,37.42C321,768.59,332.06,752.9,332.26,731.9Z"/><path d="M843.84,795.35h-25V790.2c0-16.66.08-33.32,0-50-.07-9.66-4-16.28-11.51-18.29-15.07-4-26.34,3.1-26.67,18.67-.34,16.5-.07,33-.07,49.51v5.24H755.39V662.46h24.86v46.83c1.76-1.37,2.77-2.15,3.76-2.94,11.92-9.47,25-11.23,38.88-5.24,13.65,5.9,20.48,17,20.82,31.57C844.2,753.36,843.84,774.07,843.84,795.35Z"/><path d="M618.78,765.74l15.93,14.55a51.87,51.87,0,0,1-28.28,16c-15.93,3.18-31,1.08-44.29-8.79C550.6,779,545.05,767,544.05,752.76c-1.19-16.83,3-31.87,16-43.31,13.92-12.23,30.2-14.62,47.49-9.08,16.94,5.42,26.47,17.91,29.84,35,1.3,6.6,1,13.51,1.5,20.82H569.2c1.61,9.27,6.54,15.31,14.73,18.15C597,778.83,608.67,776.12,618.78,765.74Zm-5.09-27c-2.2-14.71-10.53-21.46-24.67-20.46-9.8.69-18.37,10.18-18.32,20.46Z"/><path d="M489.35,692.05H451.86V669.91H552.13V692H515.58V795.34H489.35Z"/><path d="M743.17,723.63l-21.58,10.68C716.05,723.92,706,719,695.08,721.24c-9.83,2-17.49,11.08-18.28,22.08a51.26,51.26,0,0,0,.2,11.62c1.64,10.17,8.68,17.25,17.74,18.46,12.91,1.74,22.49-2.44,27.59-12.26,3.29,2,6.59,4,9.85,6s6.56,4.09,9.81,6.13c-8.64,18.07-31.88,28.08-53.71,23.27-23.28-5.14-38.45-24.19-38.51-48.35s15.46-44.08,38.33-49.22C710.5,693.89,733.94,704.32,743.17,723.63Z"/><path d="M360.62,777.77c1.19-1,1.85-1.69,2.59-2.25,5.19-3.94,10.4-7.85,15.81-11.92,4.92,8.23,12.27,11.1,21.17,9.64,8.68-1.42,13.71-9.19,13.83-21.07.15-15.41,0-30.82,0-46.23,0-11.83,0-23.65,0-35.86h26.72c.09,1.13.27,2.32.28,3.52,0,25.52.13,51,0,76.58-.08,13.8-3.6,26.32-14.13,36.21-18,16.88-50,14.11-64.61-5.77C361.7,779.77,361.23,778.8,360.62,777.77Z"/><path class="cls-1" d="M438.45,277.78c0-11.73-.2-23.08.08-34.42.15-6.32,4.6-10.17,11-10.18q73.29,0,146.59,0c6.34,0,11.26,4,11.42,9.89.31,11.47.09,23,.09,34.7Z"/><path class="cls-1" d="M363.55,387.33c57-.37,104.52,45.19,104.73,105.33.21,58.14-47,106-104.14,105.91-59.34-.07-106.6-47.82-106-108.05C258.69,435.22,303.61,386.5,363.55,387.33ZM298.23,493.09c0,20.25,0,40.5,0,60.75,0,8.32,6.11,14.72,14.24,14.75q52.33.13,104.67,0a14.5,14.5,0,0,0,14.71-14.86q.06-54.67-.08-109.34a9.07,9.07,0,0,0-2.3-5.63A221.09,221.09,0,0,0,412.58,422,16.89,16.89,0,0,0,402.7,418c-29.59-.32-59.18-.27-88.77-.17-10.52,0-15.69,5.49-15.7,15.95Z"/><path class="cls-1" d="M332.26,731.9c-.2,21-11.29,36.69-29,40.62-25.8,5.72-47.16-10.91-48-37.42-.48-15,2.9-28.57,15.84-37.82,19.33-13.83,53.81-7.64,59.87,24C331.61,724.79,331.83,728.37,332.26,731.9Z"/><path class="cls-1" d="M613.69,738.72h-43c-.05-10.28,8.52-19.77,18.32-20.46C603.16,717.26,611.49,724,613.69,738.72Z"/><path d="M298.23,493.09V433.75c0-10.46,5.18-15.92,15.7-15.95,29.59-.1,59.18-.15,88.77.17a16.89,16.89,0,0,1,9.88,4.06,221.09,221.09,0,0,1,16.91,16.77,9.07,9.07,0,0,1,2.3,5.63q.19,54.66.08,109.34a14.5,14.5,0,0,1-14.71,14.86q-52.34.11-104.67,0c-8.13,0-14.21-6.43-14.24-14.75C298.19,533.59,298.23,513.34,298.23,493.09Zm8.54,0q0,29.41,0,58.83c0,6.25,1.81,8,8.06,8l99.46,0c7.49,0,9-1.52,9-9,0-34.08.06-68.17-.1-102.25a10.56,10.56,0,0,0-2.56-6.38,131.14,131.14,0,0,0-12.54-12.52,12.27,12.27,0,0,0-7.23-3c-28.79-.2-57.58-.14-86.37-.13-6.34,0-7.75,1.47-7.75,8.05Q306.78,463.86,306.77,493Z"/><path class="cls-1" d="M306.77,493q0-29.19,0-58.37c0-6.58,1.41-8.05,7.75-8.05,28.79,0,57.58-.07,86.37.13a12.27,12.27,0,0,1,7.23,3,131.14,131.14,0,0,1,12.54,12.52,10.56,10.56,0,0,1,2.56,6.38c.16,34.08.11,68.17.1,102.25,0,7.45-1.54,9-9,9l-99.46,0c-6.25,0-8.06-1.77-8.06-8Q306.75,522.45,306.77,493Zm35.91,11.2H353.4c13.34,0,13.34,0,13.06-13.49-.18-8.53-5.59-14.43-14.09-14.77-6.66-.27-13.35-.15-20,.12a13.06,13.06,0,0,0-12.55,10c-.95,3.82-.76,7.94-1,11.93-.26,4.33,2,6.25,6.18,6.26ZM365,543.65v0h41.11c3,0,5.35-1.18,5.17-4.56-.15-3.08-2.37-4-5.23-4q-40.87,0-81.75,0c-3,0-5.41.89-5.38,4.31s2.44,4.34,5.44,4.28c1.24,0,2.49,0,3.73,0Zm-.27-30.49H332.93c-3.26,0-6.62-.42-9.76.22-1.65.34-4.26,2.79-4.06,3.85.32,1.76,2.44,3.3,4,4.65.55.47,1.81.11,2.74.11h78c1.24,0,2.87.37,3.64-.26,1.52-1.25,3.33-3,3.52-4.71.11-1.08-2.34-2.71-3.92-3.62-.95-.54-2.43-.23-3.67-.23ZM325.4,455.25a17.22,17.22,0,1,0,34.44,0c.13-9.13-8.12-17.45-17.24-17.36A17.61,17.61,0,0,0,325.4,455.25Zm68.17,2.93v0H381c-2.88,0-5.45,1.29-4.86,4.16.36,1.77,3.1,4.23,4.89,4.33a233,233,0,0,0,25.21,0c1.77-.1,4.51-2.53,4.86-4.27.59-2.9-2-4.17-4.87-4.19C402,458.16,397.77,458.18,393.57,458.18Z"/><path d="M342.68,504.23H325c-4.15,0-6.44-1.93-6.18-6.26.24-4,.05-8.11,1-11.93a13.06,13.06,0,0,1,12.55-10c6.66-.27,13.35-.39,20-.12,8.5.34,13.91,6.24,14.09,14.77.28,13.49.28,13.49-13.06,13.49ZM357.47,495c.61-8.49-1-10.29-8.8-10.28H336.11c-7.52,0-9.32,2.28-8,10.28Z"/><path d="M365,543.65H328c-1.24,0-2.49,0-3.73,0-3,.06-5.42-.87-5.44-4.28s2.35-4.31,5.38-4.31q40.88,0,81.75,0c2.86,0,5.08.91,5.23,4,.18,3.38-2.13,4.56-5.17,4.56H365Z"/><path d="M364.68,513.16h38.76c1.24,0,2.72-.31,3.67.23,1.58.91,4,2.54,3.92,3.62-.19,1.71-2,3.46-3.52,4.71-.77.63-2.4.26-3.64.26h-78c-.93,0-2.19.36-2.74-.11-1.6-1.35-3.72-2.89-4-4.65-.2-1.06,2.41-3.51,4.06-3.85,3.14-.64,6.5-.22,9.76-.22Z"/><path d="M325.4,455.25a17.61,17.61,0,0,1,17.2-17.37c9.12-.09,17.37,8.23,17.24,17.36a17.22,17.22,0,1,1-34.44,0Zm17.33-8.5c-4.57-.05-8.83,4-8.83,8.42s4.16,8.56,8.68,8.71,8.84-4.17,8.82-8.5A9,9,0,0,0,342.73,446.75Z"/><path d="M393.57,458.18c4.2,0,8.41,0,12.61,0,2.83,0,5.46,1.29,4.87,4.19-.35,1.74-3.09,4.17-4.86,4.27a233,233,0,0,1-25.21,0c-1.79-.1-4.53-2.56-4.89-4.33-.59-2.87,2-4.17,4.86-4.16h12.62Z"/><path class="cls-1" d="M357.47,495H328.1c-1.31-8,.49-10.26,8-10.28h12.56C356.44,484.66,358.08,486.46,357.47,495Z"/><path class="cls-1" d="M342.73,446.75a9,9,0,0,1,8.67,8.63c0,4.33-4.45,8.64-8.82,8.5s-8.68-4.32-8.68-8.71S338.16,446.7,342.73,446.75Z"/></svg>